<svg width="437" height="166" viewBox="0 0 437 166" fill="none" xmlns="http://www.w3.org/2000/svg">
<rect width="437" height="166" fill="black"/>
<path d="M128.973 90.2578V93H119.891V90.2578H128.973ZM121.039 75.9375V93H117.523V75.9375H121.039ZM127.789 82.8867V85.5586H119.891V82.8867H127.789ZM128.961 75.9375V78.6914H119.891V75.9375H128.961ZM133.918 75.9375L137.129 81.8906L140.34 75.9375H144.359L139.402 84.3984L144.488 93H140.434L137.129 86.9297L133.824 93H129.746L134.844 84.3984L129.875 75.9375H133.918ZM152.902 86.918H148.555V84.1758H152.902C153.574 84.1758 154.121 84.0664 154.543 83.8477C154.965 83.6211 155.273 83.3086 155.469 82.9102C155.664 82.5117 155.762 82.0625 155.762 81.5625C155.762 81.0547 155.664 80.582 155.469 80.1445C155.273 79.707 154.965 79.3555 154.543 79.0898C154.121 78.8242 153.574 78.6914 152.902 78.6914H149.773V93H146.258V75.9375H152.902C154.238 75.9375 155.383 76.1797 156.336 76.6641C157.297 77.1406 158.031 77.8008 158.539 78.6445C159.047 79.4883 159.301 80.4531 159.301 81.5391C159.301 82.6406 159.047 83.5938 158.539 84.3984C158.031 85.2031 157.297 85.8242 156.336 86.2617C155.383 86.6992 154.238 86.918 152.902 86.918ZM172.695 90.2578V93H164.105V90.2578H172.695ZM165.242 75.9375V93H161.727V75.9375H165.242ZM187.953 84.0703V84.8789C187.953 86.1758 187.777 87.3398 187.426 88.3711C187.074 89.4023 186.578 90.2812 185.938 91.0078C185.297 91.7266 184.531 92.2773 183.641 92.6602C182.758 93.043 181.777 93.2344 180.699 93.2344C179.629 93.2344 178.648 93.043 177.758 92.6602C176.875 92.2773 176.109 91.7266 175.461 91.0078C174.812 90.2812 174.309 89.4023 173.949 88.3711C173.598 87.3398 173.422 86.1758 173.422 84.8789V84.0703C173.422 82.7656 173.598 81.6016 173.949 80.5781C174.301 79.5469 174.797 78.668 175.438 77.9414C176.086 77.2148 176.852 76.6602 177.734 76.2773C178.625 75.8945 179.605 75.7031 180.676 75.7031C181.754 75.7031 182.734 75.8945 183.617 76.2773C184.508 76.6602 185.273 77.2148 185.914 77.9414C186.562 78.668 187.062 79.5469 187.414 80.5781C187.773 81.6016 187.953 82.7656 187.953 84.0703ZM184.402 84.8789V84.0469C184.402 83.1406 184.32 82.3438 184.156 81.6562C183.992 80.9688 183.75 80.3906 183.43 79.9219C183.109 79.4531 182.719 79.1016 182.258 78.8672C181.797 78.625 181.27 78.5039 180.676 78.5039C180.082 78.5039 179.555 78.625 179.094 78.8672C178.641 79.1016 178.254 79.4531 177.934 79.9219C177.621 80.3906 177.383 80.9688 177.219 81.6562C177.055 82.3438 176.973 83.1406 176.973 84.0469V84.8789C176.973 85.7773 177.055 86.5742 177.219 87.2695C177.383 87.957 177.625 88.5391 177.945 89.0156C178.266 89.4844 178.656 89.8398 179.117 90.082C179.578 90.3242 180.105 90.4453 180.699 90.4453C181.293 90.4453 181.82 90.3242 182.281 90.082C182.742 89.8398 183.129 89.4844 183.441 89.0156C183.754 88.5391 183.992 87.957 184.156 87.2695C184.32 86.5742 184.402 85.7773 184.402 84.8789ZM190.484 75.9375H196.848C198.152 75.9375 199.273 76.1328 200.211 76.5234C201.156 76.9141 201.883 77.4922 202.391 78.2578C202.898 79.0234 203.152 79.9648 203.152 81.082C203.152 81.9961 202.996 82.7812 202.684 83.4375C202.379 84.0859 201.945 84.6289 201.383 85.0664C200.828 85.4961 200.176 85.8398 199.426 86.0977L198.312 86.6836H192.781L192.758 83.9414H196.871C197.488 83.9414 198 83.832 198.406 83.6133C198.812 83.3945 199.117 83.0898 199.32 82.6992C199.531 82.3086 199.637 81.8555 199.637 81.3398C199.637 80.793 199.535 80.3203 199.332 79.9219C199.129 79.5234 198.82 79.2188 198.406 79.0078C197.992 78.7969 197.473 78.6914 196.848 78.6914H194V93H190.484V75.9375ZM200.023 93L196.133 85.3945L199.848 85.3711L203.785 92.8359V93H200.023ZM217.309 90.2578V93H208.227V90.2578H217.309ZM209.375 75.9375V93H205.859V75.9375H209.375ZM216.125 82.8867V85.5586H208.227V82.8867H216.125ZM217.297 75.9375V78.6914H208.227V75.9375H217.297ZM226.941 75.9375H229.918L234.301 88.4648L238.684 75.9375H241.66L235.496 93H233.105L226.941 75.9375ZM225.336 75.9375H228.301L228.84 88.1484V93H225.336V75.9375ZM240.301 75.9375H243.277V93H239.762V88.1484L240.301 75.9375ZM253.508 78.8555L248.867 93H245.129L251.469 75.9375H253.848L253.508 78.8555ZM257.363 93L252.711 78.8555L252.336 75.9375H254.738L261.113 93H257.363ZM257.152 86.6484V89.4023H248.141V86.6484H257.152ZM266.434 75.9375V93H262.93V75.9375H266.434ZM278.609 88.5352C278.609 88.2305 278.562 87.957 278.469 87.7148C278.383 87.4648 278.219 87.2383 277.977 87.0352C277.734 86.8242 277.395 86.6172 276.957 86.4141C276.52 86.2109 275.953 86 275.258 85.7812C274.484 85.5312 273.75 85.25 273.055 84.9375C272.367 84.625 271.758 84.2617 271.227 83.8477C270.703 83.4258 270.289 82.9375 269.984 82.3828C269.688 81.8281 269.539 81.1836 269.539 80.4492C269.539 79.7383 269.695 79.0938 270.008 78.5156C270.32 77.9297 270.758 77.4297 271.32 77.0156C271.883 76.5938 272.547 76.2695 273.312 76.043C274.086 75.8164 274.934 75.7031 275.855 75.7031C277.113 75.7031 278.211 75.9297 279.148 76.3828C280.086 76.8359 280.812 77.457 281.328 78.2461C281.852 79.0352 282.113 79.9375 282.113 80.9531H278.621C278.621 80.4531 278.516 80.0156 278.305 79.6406C278.102 79.2578 277.789 78.957 277.367 78.7383C276.953 78.5195 276.43 78.4102 275.797 78.4102C275.188 78.4102 274.68 78.5039 274.273 78.6914C273.867 78.8711 273.562 79.1172 273.359 79.4297C273.156 79.7344 273.055 80.0781 273.055 80.4609C273.055 80.75 273.125 81.0117 273.266 81.2461C273.414 81.4805 273.633 81.6992 273.922 81.9023C274.211 82.1055 274.566 82.2969 274.988 82.4766C275.41 82.6562 275.898 82.832 276.453 83.0039C277.383 83.2852 278.199 83.6016 278.902 83.9531C279.613 84.3047 280.207 84.6992 280.684 85.1367C281.16 85.5742 281.52 86.0703 281.762 86.625C282.004 87.1797 282.125 87.8086 282.125 88.5117C282.125 89.2539 281.98 89.918 281.691 90.5039C281.402 91.0898 280.984 91.5859 280.438 91.9922C279.891 92.3984 279.238 92.707 278.48 92.918C277.723 93.1289 276.875 93.2344 275.938 93.2344C275.094 93.2344 274.262 93.125 273.441 92.9062C272.621 92.6797 271.875 92.3398 271.203 91.8867C270.539 91.4336 270.008 90.8555 269.609 90.1523C269.211 89.4492 269.012 88.6172 269.012 87.6562H272.539C272.539 88.1875 272.621 88.6367 272.785 89.0039C272.949 89.3711 273.18 89.668 273.477 89.8945C273.781 90.1211 274.141 90.2852 274.555 90.3867C274.977 90.4883 275.438 90.5391 275.938 90.5391C276.547 90.5391 277.047 90.4531 277.438 90.2812C277.836 90.1094 278.129 89.8711 278.316 89.5664C278.512 89.2617 278.609 88.918 278.609 88.5352Z" fill="white"/>
<path d="M300 86H314.586L309.293 91.293L310.707 92.707L318.414 85L310.707 77.293L309.293 78.707L314.586 84H300V86Z" fill="white"/>
</svg>
